<?xml version="1.0" encoding="utf-8"?>
<!-- Generator: Adobe Illustrator 21.1.0, SVG Export Plug-In . SVG Version: 6.00 Build 0)  -->
<svg version="1.1" id="Layer_1" xmlns="http://www.w3.org/2000/svg" xmlns:xlink="http://www.w3.org/1999/xlink" x="0px" y="0px"
	 viewBox="0 0 30.1 34.8" style="enable-background:new 0 0 30.1 34.8;" xml:space="preserve">
<style type="text/css">
	.st0{fill:#1FE6F5;}
	.st1{fill:#FFFFFF;}
</style>
<g>
	<polygon class="st0" points="0.1,8.8 0.1,26.1 15.1,34.8 30.1,26.1 30.1,8.8 15.1,0.1 	"/>
	<g>
		<path class="st1" d="M22.3,13.4c0.1,0.5,0.2,1.2,0.3,2.2l0,1.4l0,1.4c-0.1,1-0.1,1.8-0.3,2.3c-0.1,0.3-0.3,0.6-0.5,0.8
			c-0.2,0.2-0.5,0.4-0.8,0.5c-0.5,0.1-1.6,0.2-3.3,0.3l-2.5,0l-2.5,0c-1.8-0.1-2.9-0.1-3.3-0.3c-0.3-0.1-0.6-0.3-0.8-0.5
			C8.2,21.3,8.1,21,8,20.7c-0.1-0.5-0.2-1.2-0.3-2.3l0-1.4c0-0.4,0-0.9,0-1.4c0.1-1,0.1-1.8,0.3-2.2c0.1-0.3,0.3-0.6,0.5-0.8
			s0.5-0.4,0.8-0.5c0.5-0.1,1.6-0.2,3.3-0.3l2.5,0l2.5,0c1.8,0.1,2.9,0.1,3.3,0.3c0.3,0.1,0.6,0.3,0.8,0.5
			C22,12.8,22.2,13.1,22.3,13.4z M13.6,19.3l3.9-2.2l-3.9-2.2V19.3z"/>
	</g>
</g>
</svg>
