<?xml version="1.0" encoding="utf-8"?>
<!-- Generator: Adobe Illustrator 21.1.0, SVG Export Plug-In . SVG Version: 6.00 Build 0)  -->
<svg version="1.1" id="Layer_1" xmlns="http://www.w3.org/2000/svg" xmlns:xlink="http://www.w3.org/1999/xlink" x="0px" y="0px"
	 viewBox="0 0 30.1 34.8" style="enable-background:new 0 0 30.1 34.8;" xml:space="preserve">
<style type="text/css">
	.st0{fill:#56AAE9;}
	.st1{fill:#FFFFFF;}
</style>
<polygon class="st0" points="0,8.7 0,26 15,34.7 30,26 30,8.7 15,0.1 "/>
<g>
	<path class="st1" d="M20.6,14.5c0,1.3-0.3,2.6-1,3.8c-0.7,1.3-1.6,2.3-2.8,3.1c-1.3,0.9-2.8,1.3-4.5,1.3c-1.6,0-3.1-0.4-4.4-1.3
		c0.2,0,0.4,0,0.7,0c1.3,0,2.5-0.4,3.6-1.2c-0.6,0-1.2-0.2-1.7-0.6c-0.5-0.4-0.8-0.8-1-1.4c0.2,0,0.4,0,0.5,0c0.3,0,0.5,0,0.8-0.1
		c-0.7-0.1-1.2-0.5-1.6-1S8.6,16,8.6,15.3v-0.1c0.4,0.2,0.8,0.4,1.3,0.4c-0.4-0.3-0.7-0.6-0.9-1s-0.4-0.9-0.4-1.4s0.1-1,0.4-1.4
		c0.7,0.9,1.6,1.6,2.6,2.1s2.1,0.8,3.3,0.9c0-0.2-0.1-0.4-0.1-0.7c0-0.5,0.1-1,0.4-1.4s0.6-0.8,1-1.1c0.4-0.3,0.9-0.4,1.4-0.4
		c0.4,0,0.8,0.1,1.2,0.2s0.7,0.4,0.9,0.7c0.7-0.1,1.3-0.4,1.8-0.7c-0.2,0.7-0.6,1.2-1.3,1.6c0.5-0.1,1.1-0.2,1.6-0.5
		c-0.4,0.6-0.9,1.1-1.4,1.5C20.6,14.2,20.6,14.3,20.6,14.5z"/>
</g>
</svg>
